<svg width="32" height="32" viewBox="0 0 32 32" fill="none" xmlns="http://www.w3.org/2000/svg">
<path d="M16 32C24.8366 32 32 24.8366 32 16C32 7.16344 24.8366 0 16 0C7.16344 0 0 7.16344 0 16C0 24.8366 7.16344 32 16 32Z" fill="#25D366"/>
<path fill-rule="evenodd" clip-rule="evenodd" d="M16.5274 24.9017H16.5235C14.9312 24.9012 13.3666 24.5016 11.9769 23.7437L6.93338 25.0667L8.28312 20.1366C7.45054 18.6937 7.01243 17.057 7.01315 15.3802C7.01523 10.1345 11.2833 5.8667 16.5273 5.8667C19.0725 5.8678 21.4613 6.85861 23.2575 8.65697C25.0538 10.4552 26.0425 12.8456 26.0415 15.3877C26.0394 20.6322 21.773 24.8996 16.5274 24.9017ZM12.2106 22.0212L12.4993 22.1926C13.7135 22.9131 15.1052 23.2943 16.5242 23.2949H16.5274C20.8859 23.2949 24.4333 19.7474 24.435 15.3871C24.4359 13.2741 23.6141 11.2874 22.1211 9.79262C20.6281 8.29789 18.6427 7.47432 16.5305 7.47359C12.1686 7.47359 8.62119 11.0207 8.61946 15.3807C8.61885 16.8749 9.03692 18.33 9.8285 19.5891L10.0165 19.8882L9.21766 22.8063L12.2106 22.0212ZM20.995 17.4361C21.1608 17.5162 21.2728 17.5703 21.3206 17.6501C21.38 17.7493 21.38 18.2252 21.182 18.7806C20.9838 19.3359 20.0341 19.8427 19.5773 19.9109C19.1678 19.9722 18.6495 19.9977 18.0801 19.8167C17.7348 19.7072 17.292 19.5609 16.7248 19.316C14.4962 18.3537 12.9901 16.1936 12.7055 15.7854C12.6855 15.7568 12.6716 15.7368 12.6638 15.7264L12.6619 15.7239C12.5361 15.556 11.6931 14.4313 11.6931 13.2672C11.6931 12.1722 12.231 11.5983 12.4786 11.3341C12.4955 11.316 12.5111 11.2993 12.5251 11.2841C12.743 11.0461 13.0006 10.9866 13.159 10.9866C13.3175 10.9866 13.4762 10.988 13.6147 10.995C13.6318 10.9958 13.6495 10.9957 13.6679 10.9956C13.8064 10.9948 13.9792 10.9938 14.1495 11.4031C14.2151 11.5606 14.311 11.794 14.4121 12.0403C14.6167 12.5383 14.8427 13.0886 14.8825 13.1682C14.9419 13.2872 14.9815 13.426 14.9023 13.5847C14.8904 13.6085 14.8794 13.6309 14.8689 13.6524C14.8094 13.7739 14.7656 13.8633 14.6646 13.9812C14.6249 14.0276 14.5838 14.0776 14.5428 14.1276C14.461 14.2272 14.3792 14.3268 14.308 14.3977C14.189 14.5163 14.0651 14.6449 14.2038 14.8829C14.3424 15.1209 14.8195 15.8993 15.5262 16.5297C16.2859 17.2073 16.9462 17.4937 17.2809 17.6389C17.3462 17.6672 17.3992 17.6902 17.438 17.7096C17.6756 17.8287 17.8143 17.8087 17.953 17.6501C18.0917 17.4915 18.5473 16.956 18.7057 16.718C18.8642 16.4801 19.0227 16.5197 19.2406 16.599C19.4585 16.6784 20.6273 17.2535 20.865 17.3724C20.9114 17.3957 20.9548 17.4167 20.995 17.4361Z" fill="#FDFDFD"/>
</svg>
